<?xml version="1.0" encoding="UTF-8"?><svg id="Layer_2" xmlns="http://www.w3.org/2000/svg" viewBox="0 0 269.62 167.88"><defs><style>.cls-1{fill:#231f20;stroke-width:0px;}</style></defs><g id="Layer_1-2"><path class="cls-1" d="M25.87,109.46l-4.27,2.47-11.67-20.21-7.66,4.42-2.27-3.93,19.59-11.31,2.27,3.93-7.65,4.42,11.67,20.21ZM71.03,69.82l5.87,10.18,4.23-2.44-13.94-24.15-4.23,2.44,5.8,10.04-11.52,6.65-5.79-10.05-4.23,2.45,13.94,24.14,4.23-2.44-5.88-10.17,11.52-6.65ZM124.65,42.73c-.26-1.87-.88-3.66-1.86-5.37-.98-1.7-2.22-3.13-3.72-4.29-1.49-1.16-3.12-1.98-4.87-2.47-1.76-.49-3.59-.62-5.51-.38-1.92.23-3.81.89-5.67,1.96-1.86,1.08-3.37,2.39-4.53,3.95-1.16,1.56-1.97,3.23-2.44,5.02-.47,1.79-.58,3.62-.32,5.5.26,1.88.88,3.66,1.86,5.36.99,1.7,2.23,3.13,3.72,4.29,1.49,1.16,3.12,1.99,4.88,2.48,1.75.49,3.58.62,5.5.38,1.92-.24,3.81-.89,5.67-1.96,1.86-1.07,3.37-2.39,4.53-3.95,1.15-1.56,1.96-3.23,2.43-5.02.47-1.79.58-3.62.32-5.5M115.86,37.01c1.01.81,1.85,1.81,2.53,2.98.68,1.17,1.12,2.4,1.32,3.68.2,1.28.17,2.51-.1,3.69-.27,1.18-.77,2.29-1.52,3.32-.74,1.02-1.71,1.88-2.91,2.57-1.2.69-2.43,1.1-3.71,1.22-1.28.12-2.51,0-3.68-.36-1.18-.37-2.27-.95-3.28-1.77-1-.81-1.85-1.81-2.53-2.98-.68-1.17-1.11-2.4-1.32-3.68-.2-1.28-.17-2.51.1-3.7.26-1.18.77-2.29,1.51-3.31.74-1.03,1.71-1.89,2.91-2.58,1.2-.69,2.44-1.1,3.71-1.22,1.27-.13,2.5,0,3.68.36,1.18.36,2.27.95,3.28,1.77M67.31,117.62l10,17.32,4.23-2.45-13.94-24.14-4.51,2.61-.74,15.65-13.94-7.18-4.51,2.6,13.94,24.15,4.18-2.41-9.96-17.24,14.08,6.96.14-.08,1.05-15.78ZM109.32,84.03l-3.93,2.27,3.42,30.45,4.35-2.51-.88-7.26,11.42-6.59,5.81,4.41,4.48-2.59-24.66-18.18ZM119.97,97.53l-8.31,4.8-1.44-12.05,9.75,7.25ZM106.31,151.25c-.36-.25-.68-.62-.96-1.1-.46-.81-.51-1.69-.15-2.65.36-.96,1.17-1.8,2.41-2.52,1.1-.64,2.32-1.06,3.64-1.25,1.33-.2,2.77-.21,4.34-.04l.43-4.52c-1.81-.27-3.58-.25-5.29.04-1.71.3-3.45.96-5.22,1.98-1.19.69-2.2,1.5-3.02,2.41-.82.92-1.41,1.9-1.79,2.94-.37,1.04-.51,2.11-.42,3.21.08,1.1.43,2.18,1.04,3.24.65,1.13,1.38,1.98,2.19,2.56.81.58,1.71.94,2.7,1.11,1,.16,2.11.13,3.32-.08,1.21-.21,2.55-.54,4.01-.99,1.29-.37,2.35-.63,3.2-.79.85-.15,1.55-.2,2.12-.15.57.05,1.03.21,1.37.47.35.26.65.61.91,1.04.54.94.58,1.91.13,2.91-.45,1-1.33,1.87-2.64,2.63-1.52.87-3.03,1.39-4.54,1.54-1.51.15-3.14.06-4.89-.28l-.8,4.51c2.2.47,4.34.53,6.41.18,2.06-.35,4.03-1.06,5.89-2.13,1.26-.73,2.33-1.56,3.2-2.5.87-.93,1.51-1.93,1.91-2.98.4-1.05.55-2.16.46-3.3-.1-1.14-.47-2.29-1.14-3.43-.59-1.02-1.26-1.8-2.02-2.35-.77-.55-1.63-.93-2.61-1.12-.96-.19-2.05-.2-3.25-.03-1.21.18-2.53.47-3.98.88-1.3.39-2.4.67-3.3.85-.89.18-1.64.24-2.24.18-.6-.05-1.08-.2-1.43-.46M257.31,83.71l-8.11,4.68,1.46,2.52,18.96-10.95-1.45-2.52-8.11,4.68-12.49-21.62-2.75,1.59,12.48,21.62ZM203.92,117.89l2.73-1.58-8.1-14.03c-1.52-2.65-2.02-5.01-1.48-7.1.54-2.08,1.92-3.78,4.15-5.06,2.32-1.34,4.53-1.68,6.64-1.03,2.11.65,3.92,2.29,5.43,4.91l8,13.86,2.73-1.58-8.1-14.04c-.98-1.7-2.09-3.07-3.33-4.1-1.24-1.03-2.56-1.74-3.95-2.11-1.4-.38-2.84-.44-4.32-.17-1.49.26-2.99.82-4.48,1.68-1.52.88-2.76,1.89-3.73,3.05-.97,1.16-1.64,2.44-2,3.85-.37,1.4-.41,2.92-.12,4.53.29,1.61.94,3.31,1.97,5.08l7.98,13.83ZM141.65,121.65l13.1,5.58c-.85.71-1.57,1.49-2.15,2.34-.58.85-.99,1.75-1.24,2.67-.25.92-.31,1.88-.17,2.85.14.98.5,1.98,1.08,2.99.62,1.08,1.39,1.95,2.32,2.6.93.65,1.95,1.07,3.08,1.26,1.12.19,2.31.15,3.59-.12,1.27-.27,2.57-.79,3.91-1.56l10.38-5.99-13.94-24.14-2.74,1.58,5.41,9.38-6.89,3.98-12.41-5.34-3.34,1.93ZM158.64,139c-1.57-.22-2.79-1.08-3.66-2.6-.45-.78-.7-1.57-.75-2.37-.05-.8.08-1.57.39-2.32.31-.74.77-1.45,1.4-2.12.62-.67,1.39-1.26,2.29-1.78l7.41-4.28,5.65,9.79-7.45,4.3c-1.95,1.13-3.71,1.59-5.28,1.38M193.19,43.12l26.37,10.58,2.56-1.47-13.94-24.15-2.66,1.53,11.43,19.8-27.01-10.81-2.17,1.25,13.93,24.14,2.66-1.53-11.17-19.35ZM156.71,89.97l17.46-10.08-13.94-24.15-17.63,10.18,1.43,2.48,14.89-8.6,4.88,8.44-13.17,7.61,1.43,2.49,13.17-7.61,4.76,8.23-14.73,8.5,1.44,2.49ZM141.25,11.53l13.1,5.58c-.85.7-1.56,1.49-2.14,2.34-.58.85-.99,1.74-1.24,2.67-.25.93-.3,1.88-.16,2.86.13.98.49,1.98,1.08,2.99.62,1.08,1.4,1.94,2.32,2.59.92.65,1.95,1.07,3.07,1.26,1.12.19,2.32.15,3.59-.12,1.27-.27,2.57-.79,3.9-1.56l10.39-6L161.22,0l-2.74,1.58,5.41,9.37-6.9,3.98-12.41-5.33-3.35,1.93ZM158.23,28.87c-1.57-.22-2.79-1.08-3.67-2.6-.45-.78-.7-1.57-.75-2.38-.05-.8.08-1.57.39-2.31.3-.74.77-1.45,1.4-2.12.63-.67,1.39-1.26,2.29-1.78l7.42-4.28,5.65,9.8-7.45,4.3c-1.95,1.13-3.71,1.59-5.28,1.37"/></g></svg>